<svg xmlns="http://www.w3.org/2000/svg" xmlns:xlink="http://www.w3.org/1999/xlink" width="27" height="27" viewBox="0 0 27 27">
    <defs>
        <path id="a" d="M0 24.081h26.838V.12H0V24.08z"/>
    </defs>
    <g fill="none" fill-rule="evenodd">
        <path fill="#FFF" d="M9.696 14.87a.617.617 0 0 0-.623-.612H6.899a.617.617 0 0 0-.623.611v2.134c0 .339.28.612.623.612h2.174a.617.617 0 0 0 .623-.612V14.87zM15.128 14.87a.617.617 0 0 0-.622-.612h-2.174a.617.617 0 0 0-.623.611v2.134c0 .339.28.612.623.612h2.174a.617.617 0 0 0 .622-.612V14.87zM20.562 14.87a.617.617 0 0 0-.623-.612h-2.174a.617.617 0 0 0-.623.611v2.134c0 .339.28.612.623.612h2.174a.617.617 0 0 0 .623-.612V14.87zM9.696 20.205a.617.617 0 0 0-.623-.612H6.899a.617.617 0 0 0-.623.612v2.134c0 .338.28.611.623.611h2.174a.617.617 0 0 0 .623-.611v-2.134zM15.128 20.205a.617.617 0 0 0-.622-.612h-2.174a.617.617 0 0 0-.623.612v2.134c0 .338.28.611.623.611h2.174a.617.617 0 0 0 .622-.611v-2.134zM20.562 20.205a.617.617 0 0 0-.622-.612h-2.175a.617.617 0 0 0-.623.612v2.134c0 .338.28.611.623.611h2.175a.617.617 0 0 0 .622-.611v-2.134z"/>
        <g transform="translate(0 2.87)">
            <mask id="b" fill="#fff">
                <use xlink:href="#a"/>
            </mask>
            <path fill="#FFF" d="M23.653 20.461c0 .577-.477 1.045-1.064 1.045H4.202a1.054 1.054 0 0 1-1.064-1.045v-9.87c0-.576.476-1.044 1.064-1.044h18.387c.587 0 1.064.468 1.064 1.045v9.87zm.796-20.33v3.26c0 1.473-1.217 2.66-2.718 2.66h-1.715c-1.5 0-2.733-1.187-2.733-2.66V.119H9.555V3.39c0 1.473-1.233 2.66-2.734 2.66H5.107c-1.5 0-2.718-1.187-2.718-2.66V.13C1.078.168 0 1.234 0 2.543v19.107c0 1.334 1.101 2.43 2.46 2.43h21.918c1.356 0 2.46-1.098 2.46-2.43V2.544c0-1.31-1.077-2.375-2.39-2.414z" mask="url(#b)"/>
        </g>
        <path fill="#FFF" d="M5.1 7.175h1.696c.515 0 .933-.41.933-.915V.915A.924.924 0 0 0 6.796 0H5.101a.924.924 0 0 0-.933.915V6.26c0 .505.418.915.933.915M19.995 7.175h1.696c.514 0 .932-.41.932-.915V.915A.924.924 0 0 0 21.69 0h-1.696a.924.924 0 0 0-.932.915V6.26c0 .505.417.915.932.915"/>
    </g>
</svg>
