<svg xmlns="http://www.w3.org/2000/svg" xmlns:xlink="http://www.w3.org/1999/xlink" width="153" height="127" viewBox="0 0 153 127">
    <defs>
        <path id="a" d="M17.197.578H.467v16.56h16.73V.579z"/>
        <path id="c" d="M0 .516v108.08h133.142V.515H0z"/>
    </defs>
    <g fill="none" fill-rule="evenodd">
        <path fill="#190496" d="M143.28 106.062c-2.834 0-5.138 2.281-5.138 5.085 0 2.806 2.304 5.088 5.138 5.088s5.138-2.282 5.138-5.088c0-2.804-2.304-5.085-5.138-5.085m0 13.367c-4.612 0-8.364-3.715-8.364-8.282 0-4.565 3.752-8.28 8.364-8.28 4.612 0 8.365 3.715 8.365 8.28 0 4.567-3.753 8.282-8.365 8.282"/>
        <g transform="translate(.068 .22)">
            <mask id="b" fill="#fff">
                <use xlink:href="#a"/>
            </mask>
            <path fill="#190496" d="M8.832 3.772C6 3.772 3.694 6.053 3.694 8.857c0 2.806 2.305 5.088 5.138 5.088 2.834 0 5.138-2.282 5.138-5.088 0-2.804-2.304-5.085-5.138-5.085m0 13.367c-4.612 0-8.364-3.715-8.364-8.282 0-4.565 3.752-8.28 8.364-8.28 4.612 0 8.365 3.715 8.365 8.28 0 4.567-3.753 8.282-8.365 8.282" mask="url(#b)"/>
        </g>
        <g transform="translate(14.263 17.65)">
            <mask id="d" fill="#fff">
                <use xlink:href="#c"/>
            </mask>
            <path fill="#F7CD10" d="M97.909 43.795l-5.942 2.792 5.726 11.938 5.941-2.793-5.725-11.937m-3.112-6.465l-5.734-11.954c-2.015.946-3.965 1.864-5.923 2.784l5.734 11.955 5.923-2.785m9.7 35.393C79.054 84.68 53.614 96.639 28.173 108.595l-8.355-17.419c1.116-1.073 2.403-2.019 3.316-3.24 3.435-4.59 3.46-10.398.541-14.947-3.37-5.254-9.488-7.429-15.32-5.715C5.569 61.467 2.786 55.66 0 49.854L76.32 13.982l3.792 7.903 5.933-2.789-3.79-7.904L104.968.516c2.786 5.806 5.57 11.613 8.355 17.42-2.88 2.076-4.85 4.776-5.515 8.268-.748 3.937-.113 7.62 2.442 10.852 1.77 2.238 4.003 3.871 6.74 4.706 2.564.78 5.19.818 7.798.076l8.354 17.419-22.712 10.676-3.79-7.903-5.935 2.789 3.791 7.904" mask="url(#d)"/>
        </g>
        <path fill="#190496" d="M102.582 39.522l4.35 9.07 3.008-1.414-4.35-9.07-3.008 1.414zm2.82 13.326l-7.118-14.841 8.837-4.153 7.118 14.84-8.837 4.154zm6.007 5.103l4.342 9.052 3.027-1.423-4.342-9.052-3.027 1.423zm2.811 13.306l-7.11-14.822 8.857-4.161 7.109 14.82-8.856 4.163zm-75.141 30.9l7.153 14.917L119.64 82.57l-3.791-7.903 8.848-4.16 3.791 7.904 19.798-9.305-7.102-14.808a15.26 15.26 0 0 1-7.374-.404c-2.962-.903-5.498-2.669-7.537-5.25-2.708-3.425-3.636-7.507-2.757-12.13.63-3.309 2.34-6.142 5.09-8.44l-7.11-14.825-19.798 9.306 3.79 7.904-8.848 4.157-3.79-7.902-73.408 34.503 7.098 14.797a15.517 15.517 0 0 1 3.065-.307c5.144 0 9.901 2.628 12.726 7.03 3.346 5.215 3.108 11.792-.607 16.756-.723.967-1.6 1.742-2.449 2.492a42.88 42.88 0 0 0-.196.172zm5.623 19.171l-9.543-19.895.829-.797c.368-.354.754-.695 1.14-1.036.76-.671 1.477-1.304 2.003-2.008 2.959-3.954 3.141-8.988.477-13.141-2.263-3.527-5.909-5.55-10.003-5.55-1.17 0-2.347.172-3.498.51l-1.324.388-9.639-20.098 79.237-37.243 3.79 7.904 3.02-1.419L97.4 21.04l25.627-12.045 9.62 20.058-1.081.78c-2.725 1.964-4.321 4.343-4.879 7.272-.71 3.732-.014 6.863 2.127 9.571 1.625 2.057 3.624 3.458 5.943 4.165 2.275.692 4.604.713 6.878.068l1.315-.375 9.634 20.087-25.627 12.045-3.79-7.903-3.02 1.42 3.791 7.903-79.236 37.242z"/>
    </g>
</svg>
